<svg viewBox="0 0 24 24" xmlns="http://www.w3.org/2000/svg">
  <path d="M12 4a1 1 0 1 1 0 2 1 1 0 0 1 0-2zm0-3a1 1 0 0 1 1 1v1a1 1 0 1 1-2 0V2a1 1 0 0 1 1-1zm0 16a1 1 0 1 1 0 2 1 1 0 0 1 0-2zm7-5a1 1 0 0 1 1 1 8 8 0 1 1-8-8 1 1 0 0 1 0 2 6 6 0 1 0 6 6 1 1 0 0 1 1-1zm3-1a1 1 0 0 1-1 1h-1a1 1 0 1 1 0-2h1a1 1 0 0 1 1 1zm-18 0a1 1 0 0 1-1 1H2a1 1 0 1 1 0-2h1a1 1 0 0 1 1 1zm15.07-6.07a1 1 0 0 1 0 1.41l-.7.7a1 1 0 0 1-1.41-1.41l.7-.7a1 1 0 0 1 1.41 0zm-10.64 10.64a1 1 0 0 1 0 1.41l-.7.7a1 1 0 1 1-1.41-1.41l.7-.7a1 1 0 0 1 1.41 0zM6.43 4.64a1 1 0 0 1 0 1.41l-.7.7A1 1 0 0 1 4.32 5.34l.7-.7a1 1 0 0 1 1.41 0zm10.64 10.64a1 1 0 0 1 0 1.41l-.7.7a1 1 0 0 1-1.41-1.41l.7-.7a1 1 0 0 1 1.41 0z"/>
</svg>
